<svg viewBox="0 0 158 158" fill="none" xmlns="http://www.w3.org/2000/svg">
<g clip-path="url(#clip0_13_351)">
<rect width="158" height="158" rx="20" fill="black"/>
<path opacity="0.2" d="M107.526 108.667C107.526 111.369 106.755 114.011 105.312 116.258C103.869 118.505 101.818 120.256 99.4188 121.29C97.0191 122.324 94.3786 122.595 91.8312 122.067C89.2837 121.54 86.9438 120.239 85.1072 118.328C83.2706 116.417 82.0198 113.983 81.5131 111.332C81.0064 108.682 81.2664 105.935 82.2604 103.438C83.2544 100.942 84.9376 98.8079 87.0972 97.3066C89.2568 95.8053 91.7959 95.0039 94.3932 95.0039C97.8762 95.0039 101.216 96.4434 103.679 99.0057C106.142 101.568 107.526 105.043 107.526 108.667ZM94.3932 60.8465C96.9906 60.8465 99.5296 60.0452 101.689 58.5439C103.849 57.0425 105.532 54.9087 106.526 52.4121C107.52 49.9155 107.78 47.1683 107.273 44.518C106.767 41.8676 105.516 39.4331 103.679 37.5223C101.843 35.6115 99.5027 34.3102 96.9552 33.783C94.4078 33.2559 91.7673 33.5264 89.3676 34.5605C86.968 35.5947 84.917 37.3459 83.474 39.5927C82.031 41.8396 81.2607 44.4812 81.2607 47.1835C81.2607 50.8071 82.6443 54.2824 85.1072 56.8447C87.57 59.407 90.9103 60.8465 94.3932 60.8465Z" fill="black"/>
<path d="M94.393 91.5879C92.2029 91.5872 90.0349 92.0437 88.0174 92.9304C85.9999 93.817 84.174 95.1159 82.6476 96.75L63.7287 84.0989C65.2169 80.1285 65.2169 75.7213 63.7287 71.751L82.6476 59.0999C85.4894 62.1285 89.3108 63.9513 93.371 64.2151C97.4312 64.4789 101.441 63.1647 104.623 60.5275C107.804 57.8902 109.932 54.1177 110.592 49.9414C111.252 45.7651 110.398 41.4825 108.196 37.9239C105.994 34.3653 102.6 31.7842 98.6724 30.6811C94.7449 29.578 90.5637 30.0314 86.9392 31.9535C83.3148 33.8756 80.5055 37.1293 79.0559 41.0839C77.6064 45.0386 77.6198 49.4123 79.0937 53.3572L60.1747 66.0083C57.8965 63.5749 54.9726 61.9036 51.7767 61.208C48.5808 60.5125 45.2581 60.8243 42.2334 62.1036C39.2087 63.3829 36.6195 65.5716 34.7966 68.3899C32.9737 71.2081 32 74.528 32 77.9249C32 81.3219 32.9737 84.6417 34.7966 87.46C36.6195 90.2783 39.2087 92.4669 42.2334 93.7462C45.2581 95.0256 48.5808 95.3374 51.7767 94.6418C54.9726 93.9463 57.8965 92.275 60.1747 89.8416L79.0937 102.493C77.8263 105.894 77.6387 109.627 78.5585 113.147C79.4783 116.667 81.4571 119.788 84.2051 122.053C86.9531 124.318 90.326 125.609 93.8299 125.735C97.3337 125.862 100.784 124.818 103.677 122.756C106.569 120.695 108.751 117.724 109.903 114.279C111.055 110.834 111.117 107.095 110.079 103.611C109.041 100.127 106.959 97.0802 104.136 94.9166C101.313 92.7531 97.899 91.5866 94.393 91.5879ZM94.393 36.936C96.341 36.936 98.2453 37.537 99.865 38.663C101.485 39.7889 102.747 41.3893 103.493 43.2618C104.238 45.1342 104.433 47.1946 104.053 49.1824C103.673 51.1701 102.735 52.996 101.358 54.4291C99.9801 55.8622 98.2251 56.8382 96.3145 57.2336C94.4039 57.629 92.4235 57.426 90.6238 56.6504C88.8241 55.8748 87.2858 54.5614 86.2036 52.8763C85.1213 51.1911 84.5436 49.2099 84.5436 47.1832C84.5436 44.4655 85.5813 41.8591 87.4285 39.9373C89.2756 38.0156 91.7808 36.936 94.393 36.936ZM48.4294 88.1722C46.4814 88.1722 44.5771 87.5712 42.9574 86.4452C41.3377 85.3192 40.0753 83.7188 39.3298 81.8464C38.5843 79.9739 38.3893 77.9136 38.7693 75.9258C39.1493 73.938 40.0874 72.1121 41.4648 70.679C42.8423 69.2459 44.5973 68.27 46.5079 67.8746C48.4185 67.4792 50.3988 67.6821 52.1986 68.4577C53.9983 69.2333 55.5366 70.5467 56.6188 72.2319C57.7011 73.917 58.2787 75.8982 58.2787 77.9249C58.2787 80.6427 57.241 83.2491 55.3939 85.1708C53.5468 87.0926 51.0416 88.1722 48.4294 88.1722ZM94.393 118.914C92.445 118.914 90.5407 118.313 88.921 117.187C87.3013 116.061 86.0389 114.461 85.2934 112.588C84.5479 110.716 84.3529 108.655 84.7329 106.668C85.1129 104.68 86.051 102.854 87.4285 101.421C88.8059 99.9876 90.5609 99.0117 92.4715 98.6163C94.3821 98.2209 96.3624 98.4238 98.1622 99.1994C99.9619 99.975 101.5 101.288 102.582 102.974C103.665 104.659 104.242 106.64 104.242 108.667C104.242 111.384 103.205 113.991 101.358 115.913C99.5104 117.834 97.0052 118.914 94.393 118.914Z" fill="white"/>
<path d="M70.1606 41.4902V71.9066C70.1606 77.9926 74.9287 80.202 78.1339 80.202H118V74.6717H78.1658C76.9379 74.6385 75.4762 74.1353 75.4762 71.9066C75.4762 71.6273 75.5001 71.3785 75.54 71.1517C75.8376 69.559 77.0921 69.1691 78.1658 69.1415H118V30.4297C118 27.3797 115.616 24.8994 112.685 24.8994H78.1339C74.9287 24.8994 70.1606 27.1088 70.1606 33.1948V41.4902ZM78.1339 30.4297H112.685V63.6112H75.4762V33.1948C75.4762 30.9661 76.9379 30.4629 78.1339 30.4297Z" fill="white"/>
<path d="M91.4225 58.081H96.738V49.7856H104.711V44.2553H96.738V35.96H91.4225V44.2553H83.4492V49.7856H91.4225V58.081Z" fill="white"/>
</g>
<defs>
<clipPath id="clip0_13_351">
<rect width="158" height="158" fill="white"/>
</clipPath>
</defs>
</svg>
